<?xml version="1.0" standalone="no"?>
<!DOCTYPE svg PUBLIC "-//W3C//DTD SVG 20010904//EN"
 "http://www.w3.org/TR/2001/REC-SVG-20010904/DTD/svg10.dtd">
<svg version="1.0" xmlns="http://www.w3.org/2000/svg"
 width="1000.000000pt" height="1000.000000pt" viewBox="0 0 1000.000000 1000.000000"
 preserveAspectRatio="xMidYMid meet">
<metadata>
Created by potrace 1.11, written by Peter Selinger 2001-2013
</metadata>
<g transform="translate(0.000000,1000.000000) scale(0.100000,-0.100000)"
fill="#000000" stroke="none">
<path d="M6465 8794 c-22 -2 -89 -9 -150 -14 -335 -32 -737 -134 -1100 -279
-319 -128 -774 -363 -807 -418 -17 -26 -18 -108 -18 -1305 0 -969 3 -1283 12
-1303 14 -31 56 -55 96 -55 16 0 71 18 123 39 163 68 245 86 399 86 99 0 153
-5 200 -18 441 -121 707 -624 601 -1137 -56 -267 -176 -512 -353 -722 -68 -79
-78 -97 -78 -142 0 -80 -54 -49 1042 -597 1071 -535 1059 -530 1121 -497 33
17 205 164 374 320 633 584 1107 1275 1367 1992 134 370 202 726 213 1121 11
399 -37 747 -150 1080 -234 689 -689 1224 -1312 1542 -304 155 -595 244 -936
288 -117 15 -552 28 -644 19z"/>
<path d="M441 8106 c-13 -7 -30 -24 -37 -37 -19 -34 -21 -7054 -2 -7094 26
-58 -66 -55 1588 -55 1654 0 1562 -3 1588 55 17 38 17 7052 0 7090 -26 58 66
55 -1590 55 -1245 -1 -1527 -3 -1547 -14z"/>
<path d="M4441 3106 c-52 -29 -50 14 -51 -1084 0 -1111 -2 -1064 55 -1090 38
-17 3552 -17 3590 0 52 23 70 99 37 151 -12 20 -478 291 -1776 1032 -1864
1065 -1791 1026 -1855 991z"/>
</g>
</svg>
